<svg width="18px" height="18px" viewBox="0 0 18 18" version="1.1" xmlns="http://www.w3.org/2000/svg" xmlns:xlink="http://www.w3.org/1999/xlink">
    <defs>
        <rect id="path-o-xdexdl3q-1" x="0" y="0" width="18" height="18"></rect>
    </defs>
    <g id="20241022" stroke="none" stroke-width="1" fill="none" fill-rule="evenodd">
        <g id="20241022-registry平台" transform="translate(-671, -599)">
            <g id="容器-6" transform="translate(460, 584)">
                <g id="组-1180" transform="translate(189, 0)">
                    <g id="容器" transform="translate(22, 15)">
                        <mask id="mask-o-xdexdl3q-2" fill="white">
                            <use xlink:href="#path-o-xdexdl3q-1"></use>
                        </mask>
                        <g fill-rule="nonzero"></g>
                        <path d="M12.0000498,6.00054932 C12.5523117,6.00054932 13.0000072,6.44821844 13.0000072,7.00044572 C13.0000072,7.55267322 12.5523117,8.00034213 12.0000498,8.00034213 C11.7936092,8.00034213 11.6017799,7.93778776 11.4424849,7.83060095 L9.49989462,8.811 L9.50089566,11.1343829 C9.76753513,11.288923 9.95618913,11.5631029 9.99340155,11.8834705 L10.000129,12.0000795 C10.000129,12.552307 9.55243349,12.9999759 9.00017166,12.9999759 C8.4479101,12.9999759 8.00021434,12.552307 8.00021434,12.0000795 C8.00021434,11.6302845 8.20097077,11.3073755 8.49944778,11.1343829 L8.49989462,8.803 L6.56541657,7.82625612 C6.40463981,7.93660094 6.20998227,8.00117397 6.00023341,8.00117397 C5.44770265,8.00117397 4.9998949,7.55308425 5.00027543,7.00058722 C4.99989459,6.44809014 5.44770235,6 6.00023341,6 C6.55276424,6 7.00057226,6.44808957 7.00019079,7.00058722 L6.99489462,6.923 L9.00689462,7.94 L11.0024501,6.93124101 C11.037996,6.4112971 11.471052,6.00054932 12.0000498,6.00054932 Z" id="联集-4" fill="#EBECEF" fill-rule="nonzero" mask="url(#mask-o-xdexdl3q-2)"></path>
                        <path d="M8.99999999,1.65470055 L15.1782026,5.14433755 C15.3329032,5.23365395 15.4282026,5.39871746 15.4282026,5.57735024 L15.4282026,12.4226498 C15.4282026,12.6012825 15.3329032,12.766346 15.1782026,12.8556624 L9.25,16.2783121 C9.17264973,16.3229703 9.08632486,16.3452994 8.99999999,16.3452994 C8.91367512,16.3452994 8.82735025,16.3229703 8.74999998,16.2783121 L2.82179687,12.8556624 C2.66709634,12.766346 2.57179688,12.6012825 2.57179688,12.4226497 L2.57179667,5.57735028 C2.57179667,5.48803388 2.59562153,5.4021098 2.63878397,5.32735027 C2.6819464,5.25259074 2.7444464,5.18899576 2.82179668,5.14433756 L8.74999998,1.72168784 C8.82735025,1.67702965 8.91367512,1.65470055 8.99999999,1.65470055 Z" id="多边形-1" stroke="#EBECEF" fill-rule="nonzero" mask="url(#mask-o-xdexdl3q-2)"></path>
                    </g>
                </g>
            </g>
        </g>
    </g>
</svg>