<svg xmlns="http://www.w3.org/2000/svg" xmlns:xlink="http://www.w3.org/1999/xlink" fill="none"
    version="1.1" width="34" height="34" viewBox="0 0 34 34">
    <defs>
        <clipPath id="master_svg0_3_4666">
            <rect x="0" y="0" width="34" height="34" rx="0" />
        </clipPath>
    </defs>
    <g clip-path="url(#master_svg0_3_4666)">
        <g>
            <path
                d="M21.054000000000002,8.35136Q21.054000000000002,9.40437,20.655,10.378879999999999L19.729599999999998,10L19.729599999999998,9L22,9Q23.2426,9,24.1213,9.87868Q25,10.75736,25,12L25,14.2703L24,14.2703L23.6211,13.34489Q24.5956,12.94592,25.6486,12.94592Q27.8652,12.94592,29.4326,14.5133Q31,16.0807,31,18.2973Q31,20.5139,29.4326,22.0813Q27.8652,23.6486,25.6486,23.6486Q24.5956,23.6486,23.6211,23.2497L24,22.3242L25,22.3242L25,25Q25,26.2426,24.1213,27.1213Q23.2426,28,22,28L8,28Q6.757356,28,5.87868,27.1213Q5,26.2426,5,25L5,20.856L6.372669,21.4072Q6.973809,21.6486,7.62161,21.6486Q9.00978,21.6486,9.99137,20.6671Q10.97296,19.685499999999998,10.97296,18.2973Q10.97296,16.909100000000002,9.99137,15.9275Q9.00978,14.9459,7.62161,14.9459Q6.973808,14.9459,6.37267,15.1873L5,15.7386L5,12Q5,10.75736,5.87868,9.87868Q6.75736,9,8,9L11.67573,9L11.67573,10L10.75028,10.378879999999999Q10.351320000000001,9.40437,10.351320000000001,8.35136Q10.351320000000001,6.13475,11.91869,4.567378Q13.48606,3,15.70267,3Q17.9193,3,19.4866,4.567378Q21.054000000000002,6.13476,21.054000000000002,8.35136ZM19.054000000000002,8.35136Q19.054000000000002,6.9631799999999995,18.072400000000002,5.98159Q17.0908,5,15.70267,5Q14.31449,5,13.33291,5.98159Q12.351320000000001,6.9631799999999995,12.351320000000001,8.35136Q12.351320000000001,9.010819999999999,12.60117,9.621120000000001L13.16569,11L8,11Q7.58579,11,7.29289,11.29289Q7,11.58579,7,12L7,14.2594L5.999999999999999,14.2594L5.62733,13.33141Q6.587212,12.94592,7.62161,12.94592Q9.83821,12.94592,11.40558,14.5133Q12.97296,16.0807,12.97296,18.2973Q12.97296,20.5139,11.40558,22.0813Q9.83821,23.6486,7.62161,23.6486Q6.587211,23.6486,5.627331,23.2632L6,22.3352L7,22.3352L7,25Q7,25.4142,7.29289,25.7071Q7.58579,26,8,26L22,26Q22.4142,26,22.7071,25.7071Q23,25.4142,23,25L23,20.8343L24.3789,21.3988Q24.9892,21.6486,25.6486,21.6486Q27.0368,21.6486,28.0184,20.6671Q29,19.685499999999998,29,18.2973Q29,16.909100000000002,28.0184,15.9275Q27.0368,14.9459,25.6486,14.9459Q24.9892,14.9459,24.3789,15.1958L23,15.7603L23,12Q23,11.58579,22.7071,11.29289Q22.4142,11,22,11L18.2396,11L18.8042,9.621120000000001Q19.054000000000002,9.010819999999999,19.054000000000002,8.35136Z"
                fill="#959CFF" fill-opacity="1" />
        </g>
    </g>
</svg>