<svg width="34px" height="34px" viewBox="0 0 34 34" version="1.1" xmlns="http://www.w3.org/2000/svg" xmlns:xlink="http://www.w3.org/1999/xlink">
    <defs>
        <rect id="path-5v1w6tilfk-1" x="0" y="0" width="34" height="34"></rect>
    </defs>
    <g id="20241022" stroke="none" stroke-width="1" fill="none" fill-rule="evenodd">
        <g id="hover" transform="translate(-126, -2957)">
            <g id="组-1190" transform="translate(95, 2925)">
                <g id="组-1184" transform="translate(24, 25)">
                    <g id="容器" transform="translate(7, 7)">
                        <mask id="mask-5v1w6tilfk-2" fill="white">
                            <use xlink:href="#path-5v1w6tilfk-1"></use>
                        </mask>
                        <g fill-rule="nonzero"></g>
                        <path d="M10.6356251,11.7072754 C11.7553255,11.7072754 12.6726521,12.5732489 12.7546599,13.6718168 L17.0258143,15.8312754 L21.2654818,13.6889096 C21.3399262,12.5828521 22.2606943,11.7087402 23.3856237,11.7087402 C24.5592299,11.7087402 25.5106235,12.6601355 25.5106235,13.83374 C25.5106235,15.007345 24.5592299,15.9587398 23.3856237,15.9587398 C22.9461111,15.9587398 22.5377634,15.8253081 22.1988792,15.5967435 L18.0728143,17.6812754 L18.0735329,22.618264 C18.6672718,22.9618998 19.0793149,23.5845974 19.130288,24.3069812 L19.1356235,24.45874 C19.1356235,25.632345 18.1842299,26.5837398 17.0106237,26.5837398 C15.8370179,26.5837398 14.8856239,25.632345 14.8856239,24.45874 C14.8856239,23.6723591 15.3127762,22.9857447 15.9477147,22.618264 L15.9478143,17.6662754 L11.8366848,15.5884753 C11.4950207,15.8229799 11.081358,15.9602103 10.6356251,15.9602103 C9.46144724,15.9602103 8.50981525,15.0079212 8.51062393,13.8337436 C8.50981461,12.6595656 9.46144658,11.7072754 10.6356251,11.7072754 Z" id="联集-4" fill="#959CFF" fill-rule="nonzero" mask="url(#mask-5v1w6tilfk-2)"></path>
                        <path d="M16.5,3.44337566 C16.8094011,3.26474287 17.1905989,3.26474287 17.5,3.44337566 L28.4903812,9.78867514 C28.6450818,9.87799154 28.7700818,10.0051815 28.8564066,10.1547005 C28.9427315,10.3042196 28.9903812,10.4760678 28.9903812,10.6547005 L28.9903812,23.3452995 C28.9903812,23.5239322 28.9427315,23.6957804 28.8564066,23.8452995 C28.7700818,23.9948185 28.6450818,24.1220085 28.4903812,24.2113249 L17.5,30.5566243 C17.3452995,30.6459407 17.1726497,30.6905989 17,30.6905989 C16.8273503,30.6905989 16.6547005,30.6459407 16.5,30.5566243 L5.50961919,24.2113249 C5.20021813,24.0326921 5.00961921,23.7025651 5.0096192,23.3452995 L5.0096188,10.6547006 C5.00961879,10.4760678 5.05726852,10.3042196 5.14359339,10.1547005 C5.22991825,10.0051815 5.35491826,9.87799152 5.5096188,9.78867512 Z" id="多边形-1" stroke="#959CFF" stroke-width="2" fill-rule="nonzero" mask="url(#mask-5v1w6tilfk-2)"></path>
                    </g>
                </g>
            </g>
        </g>
    </g>
</svg>