<svg xmlns="http://www.w3.org/2000/svg" xmlns:xlink="http://www.w3.org/1999/xlink" fill="none"
    version="1.1" width="34" height="34" viewBox="0 0 34 34">
    <defs>
        <clipPath id="master_svg0_3_4796">
            <rect x="0" y="0" width="34" height="34" rx="0" />
        </clipPath>
    </defs>
    <g clip-path="url(#master_svg0_3_4796)">
        <g
            transform="matrix(0.7559313774108887,-0.6546508073806763,0.7559313774108887,0.6546508073806763,-11.529237525799545,8.018283805060491)">
            <path
                d="M5.0552503125,17.86043177734375L7.4947303125,18.54470177734375Q7.6272103125,18.58186177734375,7.7648103125,18.58186177734375Q7.8633003125,18.58186177734375,7.9599003125,18.56264177734375Q8.056500312499999,18.54343177734375,8.1474903125,18.50574177734375Q8.2384803125,18.46805177734375,8.3203803125,18.41333177734375Q8.4022703125,18.35861177734375,8.4719103125,18.28896177734375Q8.5415603125,18.21932177734375,8.5962803125,18.13743177734375Q8.6509903125,18.05554177734375,8.6886903125,17.96454177734375Q8.7263803125,17.87355177734375,8.7455903125,17.77695177734375Q8.7648103125,17.68035177734375,8.7648103125,17.58186177734375Q8.7648103125,17.50060177734375,8.7516903125,17.42040177734375Q8.7385703125,17.34020877734375,8.7126703125,17.263183777343748Q8.6867703125,17.18615977734375,8.6487803125,17.11432677734375Q8.6107903125,17.04249377734375,8.561700312500001,16.97773777734375Q8.5126103125,16.91298077734375,8.4537003125,16.85700077734375Q8.3948003125,16.80101977734375,8.3276303125,16.75528377734375Q8.260460312500001,16.70954877734375,8.186790312500001,16.67525777734375Q8.113120312500001,16.64096577734375,8.0348803125,16.61901977734375L8.0346603125,16.61895677734375L5.5954003125,15.93475477734375Q4.4618813125,15.61680677734375,3.6337448125,16.45355437734375Q2.8056083125,17.29030177734375,3.1352653125,18.42047177734375L5.2730003125,25.74931177734375Q5.9066303125,27.92157177734375,7.4923203125,29.53597177734375Q9.0780103125,31.15027177734375,11.2386303125,31.82267177734375L19.0326203125,34.24817177734375Q20.1371203125,34.591871777343755,20.9858203125,33.805871777343754Q21.8346203125,33.01987177734375,21.5765203125,31.89227177734375L21.0730203125,29.69277177734375L21.0729203125,29.69227177734375Q21.0541203125,29.61017177734375,21.0218203125,29.53227177734375Q20.9895203125,29.454371777343752,20.9446203125,29.382971777343748Q20.8997203125,29.31167177734375,20.8435203125,29.248771777343748Q20.7873203125,29.185971777343752,20.7214203125,29.13337177734375Q20.6555203125,29.080871777343752,20.5817203125,29.040071777343748Q20.5079203125,28.99937177734375,20.4283203125,28.97147177734375Q20.3487203125,28.943671777343752,20.2656203125,28.92957177734375Q20.1825203125,28.91547177734375,20.0981203125,28.91547177734375Q19.9997203125,28.91547177734375,19.9031203125,28.934671777343752Q19.8065203125,28.95387177734375,19.7155203125,28.99157177734375Q19.6245203125,29.02927177734375,19.5426203125,29.08397177734375Q19.4607203125,29.138671777343752,19.3910203125,29.20837177734375Q19.321420312500003,29.27797177734375,19.2667203125,29.359871777343 75Q19.2120203125,29.44177177734375,19.1743203125,29.53277177734375Q19.1366203125,29.623771777343748,19.117420312500002,29.72037177734375Q19.0981203125,29.816971777343753,19.0981203125,29.91547177734375Q19.0981203125,30.02837177734375,19.123420312500002,30.13857177734375L19.1235203125,30.138971777343748L19.6269203125,32.33847177734375L11.8329203125,29.91297177734375Q10.1524403125,29.38997177734375,8.9191303125,28.134471777343748Q7.6858103125,26.87887177734375,7.1929903125,25.18928177734375L5.0552503125,17.86043177734375Z"
                fill-rule="evenodd" fill="#959CFF" fill-opacity="1" />
        </g>
        <g
            transform="matrix(0.7559313774108887,-0.6546508073806763,0.7559313774108887,0.6546508073806763,-17.03977610374568,10.535787517248536)">
            <path
                d="M5.0552503125,25.1501656640625L7.4947303125,25.8344356640625Q7.6272103125,25.8715956640625,7.7648103125,25.8715956640625Q7.8633003125,25.8715956640625,7.9599003125,25.8523756640625Q8.056500312499999,25.8331656640625,8.1474903125,25.7954756640625Q8.2384803125,25.7577856640625,8.3203803125,25.7030656640625Q8.4022703125,25.6483456640625,8.4719103125,25.5786956640625Q8.5415603125,25.5090556640625,8.5962803125,25.4271656640625Q8.6509903125,25.3452756640625,8.6886903125,25.2542756640625Q8.7263803125,25.1632856640625,8.7455903125,25.0666856640625Q8.7648103125,24.9700856640625,8.7648103125,24.8715956640625Q8.7648103125,24.7903356640625,8.7516903125,24.7101356640625Q8.7385703125,24.6299426640625,8.7126703125,24.552917664062498Q8.6867703125,24.4758936640625,8.6487803125,24.4040606640625Q8.6107903125,24.3322276640625,8.561700312500001,24.2674716640625Q8.5126103125,24.2027146640625,8.4537003125,24.1467346640625Q8.3948003125,24.0907536640625,8.3276303125,24.0450176640625Q8.260460312500001,23.9992826640625,8.186790312500001,23.9649916640625Q8.113120312500001,23.9306996640625,8.0348803125,23.9087536640625L8.0346603125,23.9086906640625L5.5954003125,23.2244886640625Q4.4618813125,22.9065406640625,3.6337448125,23.7432882640625Q2.8056083125,24.5800356640625,3.1352653125,25.7102056640625L5.2730003125,33.0390456640625Q5.9066303125,35.2113056640625,7.4923203125,36.8257056640625Q9.0780103125,38.4400056640625,11.2386303125,39.1124056640625L19.0326203125,41.5379056640625Q20.1371203125,41.881605664062505,20.9858203125,41.095605664062504Q21.8346203125,40.3096056640625,21.5765203125,39.1820056640625L21.0730203125,36.9825056640625L21.0729203125,36.9820056640625Q21.0541203125,36.8999056640625,21.0218203125,36.8220056640625Q20.9895203125,36.7441056640625,20.9446203125,36.6727056640625Q20.8997203125,36.6014056640625,20.8435203125,36.5385056640625Q20.7873203125,36.4757056640625,20.7214203125,36.423105664062504Q20.6555203125,36.3706056640625,20.5817203125,36.3298056640625Q20.5079203125,36.289105664062504,20.4283203125,36.2612056640625Q20.3487203125,36.2334056640625,20.2656203125,36.2193056640625Q20.1825203125,36.205205664062504,20.0981203125,36.205205664062504Q19.9997203125,36.205205664062504,19.9031203125,36.2244056640625Q19.8065203125,36.2436056640625,19.7155203125,36.2813056640625Q19.6245203125,36.3190056640625,19.5426203125,36.3737056640625Q19.4607203125,36.4284056640625,19.3910203125,36.4981056640625Q19.321420312500003,36.5677056640625,19.2667203125,36.6496056640625Q19.2120203125,36.731505664062496,19.1743203125,36.822505664062504Q19.1366203125,36.9135056640625,19.117420312500002,37.0101056640625Q19.0981203125,37.1067056640625,19.0981203125,37.205205664062504Q19.0981203125,37.3181056640625,19.123420312500002,37.4283056640625L19.1235203125,37.4287056640625L19.6269203125,39.6282056640625L11.8329203125,37.2027056640625Q10.1524403125,36.679705664062496,8.9191303125,35.4242056640625Q7.6858103125,34.1686056640625,7.1929903125,32.4790156640625L5.0552503125,25.1501656640625Z"
                fill-rule="evenodd" fill="#959CFF" fill-opacity="1" />
        </g>
        <g
            transform="matrix(0.7559314370155334,-0.6546508073806763,0.7559314370155334,0.6546508073806763,-6.532418917700852,4.1232956453823135)">
            <path
                d="M5.105092265625,10.31710099609375C3.574382265625,9.81134299609375,2.104976265625,11.23158099609375,2.558372265625,12.77861099609375L4.768722265625,20.32062099609375C5.522922265625,22.89402099609375,7.516312265625,24.918320996093748,10.077792265625,25.71212099609375L18.024372265625,28.17472099609375C19.565172265625,28.65212099609375,21.008272265625,27.20292099609375,20.524172265625,25.66412099609375L17.539772265625,16.17724099609375C17.153672265624998,14.94987099609375,16.200772265624998,13.983160996093751,14.979072265625,13.57950099609375L5.105092265625,10.31710099609375ZM4.477642265625001,12.21613099609375L6.687992265625,19.75812099609375Q7.112232265625,21.20562099609375,8.170592265625,22.28042099609375Q9.228962265625,23.35522099609375,10.669792265625,23.80172099609375L18.616372265625,26.26432099609375L15.631972265625,16.77740099609375Q15.324472265625,15.799980996093751,14.351572265625,15.478530996093749L4.477642265625001,12.21613099609375Z"
                fill-rule="evenodd" fill="#959CFF" fill-opacity="1" />
        </g>
    </g>
</svg>