<svg width="129px" height="73px" viewBox="0 0 129 73" version="1.1"
    xmlns="http://www.w3.org/2000/svg"
    xmlns:xlink="http://www.w3.org/1999/xlink">
    <defs>
        <polygon id="path-1gqsm_2dvm-1" points="0.62594527 0.497936845 128.899627 0.497936845 128.899627 28.1389643 0.62594527 28.1389643"></polygon>
    </defs>
    <g id="20241022" stroke="none" stroke-width="1" fill="none" fill-rule="evenodd">
        <g id="20241022-registry平台" transform="translate(-51, -27)">
            <g id="Logo" transform="translate(51, 27)">
                <rect fill-rule="nonzero" x="0" y="0" width="129" height="73"></rect>
                <path d="M5.87163774,50.0968418 C4.09210101,50.0968418 2.67862741,49.6936426 1.62894312,48.8880005 C0.580016828,48.0838737 0.03736421,46.926569 0.000227368422,45.4183578 L3.27660624,45.4183578 C3.41075364,46.733305 4.27096406,47.3903999 5.85344831,47.3903999 C6.44233266,47.3903999 6.94254295,47.2714109 7.35408012,47.0319157 C7.76485912,46.7939367 7.97024862,46.4309053 7.97024862,45.9413052 C7.97024862,45.6048002 7.84140626,45.3251371 7.58372203,45.0992842 C7.32679597,44.8749475 7.06456415,44.7173052 6.8023328,44.626358 C6.53782741,44.5369263 6.03761665,44.3936844 5.30094329,44.2004213 C5.26532213,44.1882944 5.24031154,44.178442 5.2274274,44.1716213 C5.21530095,44.1655579 5.19635383,44.1602526 5.17285911,44.1534319 C5.14784852,44.1466103 5.12359563,44.1435795 5.09858505,44.1435795 C4.53471175,44.001853 4.07087985,43.8760424 3.7086064,43.7669058 C3.34709064,43.6570106 2.93555371,43.4895158 2.47551147,43.2636633 C2.01546947,43.0385685 1.6509221,42.7892213 1.38111154,42.5194106 C1.10978524,42.2495999 0.880143142,41.890358 0.689911581,41.4469895 C0.500437892,41.0028634 0.404943145,40.5034108 0.404943145,39.9493895 C0.404943145,38.5313685 0.886206306,37.4680421 1.84949056,36.7594106 C2.81353275,36.050779 4.07391158,35.6968422 5.63214294,35.6968422 C7.12974302,35.6968422 8.35374299,36.0576001 9.30490152,36.778358 C10.2560591,37.5006317 10.7623324,38.557137 10.8244805,39.9493895 L7.63904849,39.9493895 C7.57690088,39.4211369 7.36241666,39.0126317 6.99483768,38.722358 C6.626501,38.4320843 6.13538543,38.2865684 5.52224819,38.2865684 C4.95685903,38.2865684 4.50060645,38.4055579 4.15045873,38.643537 C3.80106942,38.8830316 3.62599579,39.1952844 3.62599579,39.5818107 C3.62599579,40.0198736 3.83441678,40.3389473 4.25125877,40.5382738 C4.66961662,40.7376003 5.45479575,40.9740634 6.60906926,41.2431159 C7.33210126,41.4242525 7.92780629,41.600842 8.39391176,41.7759161 C8.86001722,41.9494739 9.33521692,42.1988211 9.8210272,42.5194106 C10.3053221,42.841516 10.6668381,43.2568421 10.9063324,43.7669058 C11.1450695,44.2746944 11.2655748,44.8840418 11.2655748,45.5926733 C11.2655748,46.9985685 10.7593006,48.0990314 9.74675409,48.8978529 C8.73420659,49.6974316 7.44199601,50.0968418 5.87163774,50.0968418 L5.87163774,50.0968418 Z" id="Fill-1" fill="#FFFFFF" fill-rule="nonzero"></path>
                <polygon id="Fill-3" fill="#FFFFFF" fill-rule="nonzero" points="13.4431581 49.7679176 13.4431581 35.946949 23.420084 35.946949 23.420084 38.7693491 16.7013476 38.7693491 16.7013476 41.2431173 22.462863 41.2431173 22.462863 43.9109068 16.7013476 43.9109068 16.7013476 46.8682117 23.5307369 46.8682117 22.9032001 49.7679176"></polygon>
                <path d="M42.1473608,49.7679176 L37.8031082,35.946949 L41.1901398,35.946949 L43.2516136,43.1962123 L43.8594451,45.6320858 L43.895824,45.6320858 C44.1171293,44.6907806 44.3194871,43.8790755 44.5036554,43.1962123 L46.5469398,35.946949 L49.8415079,35.946949 L45.5154452,49.7679176 L42.1473608,49.7679176 Z" id="Fill-5" fill="#FFFFFF" fill-rule="nonzero"></path>
                <path d="M70.2284222,35.9470978 C71.5782328,35.9470978 72.6824856,36.3002767 73.5411797,37.0013293 C74.4013901,37.7046556 74.8296013,38.6793084 74.8296013,39.9290767 C74.8296013,41.6055398 74.0694323,42.719645 72.5475798,43.2721505 L72.5475798,43.3312664 C73.6525908,43.7177925 74.2892218,44.5628452 74.4612646,45.8633928 C74.5355377,46.3150978 74.5893488,46.8721504 74.618906,47.5353079 C74.6727171,48.731266 75.0137691,49.7673082 75.0137691,49.7673082 L71.7373905,49.7680664 C71.5805063,49.2170763 71.5168433,48.45994 71.4797063,47.8930349 C71.4425693,47.3268871 71.4001274,46.8812456 71.3516221,46.5598974 C71.178822,45.2457085 70.4497275,44.5870981 69.1605482,44.5870981 L67.1907799,44.5870981 L67.1907799,49.7680664 L63.9325905,49.7680664 L63.9325905,35.9470978 L70.2284222,35.9470978 Z M69.7122958,38.6535399 L67.1907799,38.6535399 L67.1907799,42.0557294 L69.6387799,42.0557294 C70.2769272,42.0557294 70.7619798,41.9079399 71.092422,41.6108451 C71.4243801,41.3152661 71.5911167,40.9022136 71.5911167,40.373961 C71.5911167,39.8593504 71.430443,39.4440241 71.1121273,39.1264662 C70.7922957,38.8119399 70.3261905,38.6535399 69.7122958,38.6535399 Z" id="Fill-7" fill="#FFFFFF" fill-rule="nonzero"></path>
                <path d="M110.714248,50.096838 C108.933953,50.096838 107.520479,49.6936388 106.471553,48.8879967 C105.422627,48.0838699 104.879216,46.9265652 104.842079,45.418354 L108.118458,45.418354 C108.253363,46.7333012 109.112816,47.3903961 110.696058,47.3903961 C111.284942,47.3903961 111.784395,47.2714071 112.195932,47.0319118 C112.606711,46.7939329 112.812858,46.4309015 112.812858,45.9413013 C112.812858,45.6047964 112.684016,45.3251333 112.426332,45.0992804 C112.168648,44.8749437 111.907174,44.7173014 111.644942,44.6263542 C111.380437,44.5369225 110.880227,44.3936806 110.142795,44.2004175 C110.107174,44.1882906 110.082163,44.1784382 110.070037,44.1716175 C110.057911,44.165554 110.038206,44.1602488 110.014711,44.1534281 C109.990458,44.1466064 109.966206,44.1435757 109.940437,44.1435757 C109.376564,44.0018492 108.912732,43.8760386 108.551216,43.766902 C108.1897,43.6570067 107.778163,43.489512 107.318121,43.2636595 C106.858079,43.0385647 106.492774,42.7892175 106.222963,42.5194068 C105.952395,42.2495961 105.721995,41.8903542 105.531763,41.4469857 C105.34229,41.0028596 105.246795,40.503407 105.246795,39.9493856 C105.246795,38.5313647 105.728816,37.4680383 106.691342,36.7594068 C107.656142,36.0507752 108.916521,35.6968384 110.474753,35.6968384 C111.972353,35.6968384 113.195595,36.0575963 114.147511,36.7783542 C115.097911,37.5006279 115.604942,38.5571332 115.666332,39.9493856 L112.4809,39.9493856 C112.419511,39.421133 112.205027,39.0126278 111.837448,38.7223542 C111.469111,38.4320805 110.977995,38.2865646 110.3641,38.2865646 C109.799469,38.2865646 109.343216,38.4055541 108.993069,38.6435332 C108.643679,38.8830278 108.467848,39.1952806 108.467848,39.5818069 C108.467848,40.0198698 108.677027,40.3389435 109.093869,40.53827 C109.511468,40.7375965 110.296648,40.9740596 111.450921,41.2431121 C112.174711,41.4242487 112.770416,41.6008382 113.236522,41.7759123 C113.702626,41.94947 114.177827,42.1988173 114.662879,42.5194068 C115.147932,42.8415122 115.509448,43.2568383 115.748942,43.766902 C115.987679,44.2746906 116.108185,44.884038 116.108185,45.5926695 C116.108185,46.9985647 115.601152,48.0990276 114.588606,48.8978491 C113.576816,49.6974277 112.284606,50.096838 110.714248,50.096838 L110.714248,50.096838 Z" id="Fill-9" fill="#FFFFFF" fill-rule="nonzero"></path>
                <path d="M123.507435,50.0968418 C121.727898,50.0968418 120.314425,49.6936426 119.26474,48.8880005 C118.215814,48.0838737 117.673161,46.926569 117.636024,45.4183578 L120.912403,45.4183578 C121.047309,46.733305 121.906761,47.3903999 123.490004,47.3903999 C124.078887,47.3903999 124.57834,47.2714109 124.989877,47.0319157 C125.400656,46.7939367 125.606803,46.4309053 125.606803,45.9413052 C125.606803,45.6048002 125.477203,45.3251371 125.220277,45.0992842 C124.962593,44.8749475 124.701119,44.7173052 124.43813,44.626358 C124.174382,44.5369263 123.674172,44.3936844 122.93674,44.2004213 C122.901119,44.1882944 122.876109,44.178442 122.863982,44.1716213 C122.851856,44.1655579 122.832151,44.1602526 122.808656,44.1534319 C122.784403,44.1466103 122.759393,44.1435795 122.734382,44.1435795 C122.170509,44.001853 121.706677,43.8760424 121.344404,43.7669058 C120.982888,43.6570106 120.572109,43.4895158 120.111309,43.2636633 C119.652025,43.0385685 119.286719,42.7892213 119.016909,42.5194106 C118.74634,42.2495999 118.51594,41.890358 118.325709,41.4469895 C118.136235,41.0028634 118.04074,40.5034108 118.04074,39.9493895 C118.04074,38.5313685 118.522761,37.4680421 119.485288,36.7594106 C120.44933,36.050779 121.710466,35.6968422 123.268698,35.6968422 C124.766298,35.6968422 125.98954,36.0576001 126.940699,36.778358 C127.891856,37.5006317 128.398129,38.557137 128.460278,39.9493895 L125.274846,39.9493895 C125.213456,39.4211369 124.998972,39.0126317 124.630635,38.722358 C124.262298,38.4320843 123.77194,38.2865684 123.158045,38.2865684 C122.593414,38.2865684 122.136404,38.4055579 121.786256,38.643537 C121.437624,38.8830316 121.261793,39.1952844 121.261793,39.5818107 C121.261793,40.0198736 121.470214,40.3389473 121.887056,40.5382738 C122.305414,40.7376003 123.090593,40.9740634 124.244866,41.2431159 C124.968656,41.4242525 125.563603,41.600842 126.029709,41.7759161 C126.495814,41.9494739 126.971014,42.1988211 127.456824,42.5194106 C127.941877,42.841516 128.302635,43.2568421 128.542888,43.7669058 C128.781625,44.2746944 128.901372,44.8840418 128.901372,45.5926733 C128.901372,46.9985685 128.395098,48.0990314 127.382551,48.8978529 C126.370004,49.6974316 125.078551,50.0968418 123.507435,50.0968418 L123.507435,50.0968418 Z" id="Fill-11" fill="#FFFFFF" fill-rule="nonzero"></path>
                <polygon id="Fill-19" fill="#FFFFFF" fill-rule="nonzero" points="81.3916833 31.4444466 78.0902939 32.8465518 85.1068835 50.0969944 88.4294939 48.7449093"></polygon>
                <g id="编组" transform="translate(0, 0.26)">
                    <rect fill-rule="nonzero" x="0" y="0" width="129" height="29"></rect>
                    <mask id="mask-1gqsm_2dvm-2" fill="white">
                        <use xlink:href="#path-1gqsm_2dvm-1"></use>
                    </mask>
                    <g id="Clip-22" fill-rule="nonzero"></g>
                    <polygon id="Fill-21" fill="#FFFFFF" fill-rule="nonzero" mask="url(#mask-1gqsm_2dvm-2)" points="0.62594527 0.49778527 0.62594527 28.1389634 70.5970604 28.1389634 70.5970604 9.3795535 88.5622017 28.1389634 128.899627 28.1389634 128.899627 0.49778527"></polygon>
                </g>
                <path d="M32.219697,35.9470978 C33.5702658,35.9470978 34.6745186,36.3002767 35.5332127,37.0013293 C36.3926659,37.7046556 36.8216343,38.6793084 36.8216343,39.9290767 C36.8216343,41.6055398 36.0614653,42.719645 34.5396128,43.2721505 L34.5396128,43.3312664 C35.6438656,43.7177925 36.2812548,44.5628452 36.4532976,45.8633928 C36.5275707,46.3150978 36.5806236,46.8721504 36.6101818,47.5353079 C36.6647501,48.731266 37.0058022,49.7673082 37.0058022,49.7673082 L33.7294235,49.7680664 C33.5725393,49.2170763 33.5088763,48.45994 33.4717393,47.8930349 C33.4338446,47.3268871 33.3914022,46.8812456 33.3436551,46.5598974 C33.1700974,45.2457085 32.4410024,44.5870981 31.1525812,44.5870981 L29.1828129,44.5870981 L29.1828129,49.7680664 L25.9246235,49.7680664 L25.9246235,35.9470978 L32.219697,35.9470978 Z M31.7043288,38.6535399 L29.1828129,38.6535399 L29.1828129,42.0557294 L31.6308129,42.0557294 C32.2689602,42.0557294 32.7532551,41.9079399 33.084455,41.6108451 C33.4164131,41.3152661 33.582392,40.9022136 33.582392,40.373961 C33.582392,39.8593504 33.4217184,39.4440241 33.1041603,39.1264662 C32.7835708,38.8119399 32.3174655,38.6535399 31.7043288,38.6535399 Z" id="Fill-23" fill="#FFFFFF" fill-rule="nonzero"></path>
                <polygon id="Fill-27" fill="#FFFFFF" fill-rule="nonzero" points="51.5007668 49.7679176 51.5007668 35.946949 61.4776926 35.946949 61.4776926 38.7693491 54.7589562 38.7693491 54.7589562 41.2431173 60.5204716 41.2431173 60.5204716 43.9109068 54.7589562 43.9109068 54.7589562 46.8682117 61.5875874 46.8682117 60.9608088 49.7679176"></polygon>
                <polygon id="Fill-29" fill="#FFFFFF" fill-rule="nonzero" points="93.1642075 49.7679176 93.1642075 35.946949 103.141133 35.946949 103.141133 38.7693491 96.4223969 38.7693491 96.4223969 41.2431173 102.183912 41.2431173 102.183912 43.9109068 96.4223969 43.9109068 96.4223969 46.8682117 103.251786 46.8682117 102.624249 49.7679176"></polygon>
                <polygon id="Fill-3" fill="#FFFFFF" fill-rule="nonzero" points="14 70.8209686 14 57 23.9769258 57 23.9769258 59.8224001 17.2581894 59.8224001 17.2581894 62.2961683 23.0197048 62.2961683 23.0197048 64.9639578 17.2581894 64.9639578 17.2581894 67.9212627 24.0875788 67.9212627 23.460042 70.8209686"></polygon>
                <path d="M6.29507351,57 C7.64564228,57 8.7498951,57.3531789 9.60858917,58.0542315 C10.4680424,58.7575579 10.8970108,59.7322106 10.8970108,60.9819789 C10.8970108,62.658442 10.1368418,63.7725472 8.61498928,64.3250527 L8.61498928,64.3841686 C9.7192421,64.7706947 10.3566313,65.6157475 10.5286741,66.9162951 C10.6029472,67.368 10.6560001,67.9250526 10.6855583,68.5882101 C10.7401266,69.7841682 11.0811787,70.8202105 11.0811787,70.8202105 L7.80480003,70.8209686 C7.64791584,70.2699785 7.58425283,69.5128422 7.5471158,68.9459372 C7.50922108,68.3797894 7.46677876,67.9341478 7.41903162,67.6127996 C7.24547386,66.2986107 6.51637888,65.6400003 5.22795773,65.6400003 L3.25818944,65.6400003 L3.25818944,70.8209686 L0,70.8209686 L0,57 L6.29507351,57 Z M5.77970529,59.7064421 L3.25818944,59.7064421 L3.25818944,63.1086316 L5.70618939,63.1086316 C6.34433675,63.1086316 6.82863164,62.9608421 7.15983152,62.6637473 C7.49178958,62.3681684 7.65776849,61.9551158 7.65776849,61.4268632 C7.65776849,60.9122527 7.49709487,60.4969263 7.17953682,60.1793684 C6.85894728,59.8648421 6.39284205,59.7064421 5.77970529,59.7064421 Z" id="Fill-23" fill="#FFFFFF" fill-rule="nonzero"></path>
                <path d="M79.2950735,57 C80.6456423,57 81.7498951,57.3531789 82.6085892,58.0542315 C83.4680424,58.7575579 83.8970108,59.7322106 83.8970108,60.9819789 C83.8970108,62.658442 83.1368418,63.7725472 81.6149893,64.3250527 L81.6149893,64.3841686 C82.7192421,64.7706947 83.3566313,65.6157475 83.5286741,66.9162951 C83.6029472,67.368 83.6560001,67.9250526 83.6855583,68.5882101 C83.7401266,69.7841682 84.0811787,70.8202105 84.0811787,70.8202105 L80.8048,70.8209686 C80.6479158,70.2699785 80.5842528,69.5128422 80.5471158,68.9459372 C80.5092211,68.3797894 80.4667788,67.9341478 80.4190316,67.6127996 C80.2454739,66.2986107 79.5163789,65.6400003 78.2279577,65.6400003 L76.2581894,65.6400003 L76.2581894,70.8209686 L73,70.8209686 L73,57 L79.2950735,57 Z M78.7797053,59.7064421 L76.2581894,59.7064421 L76.2581894,63.1086316 L78.7061894,63.1086316 C79.3443367,63.1086316 79.8286316,62.9608421 80.1598315,62.6637473 C80.4917896,62.3681684 80.6577685,61.9551158 80.6577685,61.4268632 C80.6577685,60.9122527 80.4970949,60.4969263 80.1795368,60.1793684 C79.8589473,59.8648421 79.3928421,59.7064421 78.7797053,59.7064421 Z" id="Fill-24" fill="#FFFFFF" fill-rule="nonzero"></path>
                <polygon id="路径" fill="#FFFFFF" fill-rule="nonzero" points="44.2581787 57 44.2581894 70.8209686 41 70.8209686 41 57"></polygon>
                <g id="组-1175" transform="translate(60, 57)" fill="#FFFFFF" fill-rule="nonzero">
                    <polygon id="路径" points="7.25817871 0 7.25818944 13.8209686 4 13.8209686 4 0"></polygon>
                    <polygon id="路径" transform="translate(5.5, 1.5) rotate(-90) translate(-5.5, -1.5)" points="6.99998999 -4 7 7 4 7 4 -4"></polygon>
                </g>
                <path d="M33.1476502,71 C35.2013416,71 37.0738249,70.7265797 38,70.2382984 L38,62.7382817 L33.0469794,62.7382755 L32.6845632,65.1015625 L35.3221474,65.1015625 L35.3221474,67.953125 C34.9194622,68.3046875 34.1744957,68.5 33.4697986,68.5 C30.530201,68.5 29.0604024,66.6054697 29.0604024,63.4609375 C29.0604024,60.3554687 31.0335569,59.0078292 32.6845784,59.0078292 C34.0536909,59.0078292 35.0604019,59.4961104 35.3221569,60.4726729 L38,60.4726729 C38,57.5429854 35.3020124,56 33.1476502,56 C29.1812077,56 26,58.7929692 26,63.5585942 C26,68.3828125 29.1006708,71 33.1476502,71 Z" id="G" fill="#FFFFFF" fill-rule="nonzero"></path>
                <path d="M52.8721685,71.3999996 C51.0918736,71.3999996 49.6784,70.9968004 48.6294737,70.1911583 C47.5805474,69.3870316 47.0371368,68.2297268 47,66.7215157 L50.2763789,66.7215157 C50.4112842,68.0364628 51.2707367,68.6935577 52.8539791,68.6935577 C53.442863,68.6935577 53.9423156,68.5745687 54.3538527,68.3350735 C54.7646317,68.0970945 54.9707789,67.7340631 54.9707789,67.244463 C54.9707789,66.907958 54.8419371,66.6282949 54.5842528,66.402442 C54.3265686,66.1781054 54.0650949,66.020463 53.8028631,65.9295158 C53.5383577,65.8400841 53.0381474,65.6968422 52.3007159,65.5035791 C52.2650948,65.4914522 52.2400842,65.4815998 52.2279577,65.4747791 C52.2158318,65.4687157 52.1961265,65.4634104 52.1726317,65.4565897 C52.1483788,65.4497681 52.1241264,65.4467373 52.0983577,65.4467373 C51.5344844,65.3050108 51.0706525,65.1792002 50.7091367,65.0700636 C50.347621,64.9601684 49.9360843,64.7926736 49.476042,64.5668211 C49.016,64.3417263 48.6506947,64.0923791 48.3808842,63.8225684 C48.1103158,63.5527577 47.8799158,63.1935158 47.6896842,62.7501473 C47.5002105,62.3060212 47.4047158,61.8065686 47.4047158,61.2525473 C47.4047158,59.8345263 47.8867369,58.7711999 48.8492632,58.0625684 C49.8140631,57.3539369 51.0744419,57 52.6326737,57 C54.1302738,57 55.3535156,57.3607579 56.3054314,58.0815158 C57.2558317,58.8037895 57.7628632,59.8602948 57.8242531,61.2525473 L54.6388211,61.2525473 C54.5774317,60.7242947 54.3629475,60.3157895 53.9953685,60.0255158 C53.6270318,59.7352421 53.1359158,59.5897262 52.5220208,59.5897262 C51.9573894,59.5897262 51.5011368,59.7087157 51.1509895,59.9466949 C50.8016,60.1861894 50.6257684,60.4984422 50.6257684,60.8849685 C50.6257684,61.3230314 50.8349473,61.6421051 51.2517896,61.8414316 C51.6693892,62.0407581 52.4545684,62.2772212 53.6088419,62.5462737 C54.3326316,62.7274103 54.9283366,62.9039998 55.3944426,63.0790739 C55.8605471,63.2526317 56.3357477,63.5019789 56.8207998,63.8225684 C57.3058529,64.1446738 57.6673689,64.5599999 57.9068632,65.0700636 C58.1456003,65.5778522 58.2661057,66.1871996 58.2661057,66.8958311 C58.2661057,68.3017263 57.7590733,69.4021893 56.7465267,70.2010107 C55.7347364,71.0005894 54.4425263,71.3999996 52.8721685,71.3999996 L52.8721685,71.3999996 Z" id="Fill-9" fill="#FFFFFF" fill-rule="nonzero"></path>
                <path d="M88.3767705,57 L91,61.6666665 L93.7161474,57 L97,57 L92.3846154,64.4666667 L92.3846154,70.9999995 L89.6153846,70.9999995 L89.6153846,64.4666667 L85,57 L88.3767705,57 Z" id="联集-3" fill="#FFFFFF" fill-rule="nonzero"></path>
            </g>
        </g>
    </g>
</svg>