
<svg width="12px" height="12px" viewBox="0 0 12 12" version="1.1" xmlns="http://www.w3.org/2000/svg" xmlns:xlink="http://www.w3.org/1999/xlink">
    <g id="20241022" stroke="none" stroke-width="1" fill="none" fill-rule="evenodd">
        <g id="20241022-registry平台" transform="translate(-900, -386)" fill="#FFFFFF" fill-rule="nonzero">
            <g id="组-56" transform="translate(506, 367)">
                <path d="M398.438122,27.8762455 C397.197724,27.8762455 396.148051,27.446544 395.289104,26.587141 C394.430156,25.7277384 394.000455,24.6780656 394,23.4381227 C394,22.1977243 394.429701,21.1480514 395.289104,20.2891039 C396.148506,19.4301564 397.198179,19.0004552 398.438122,19 C399.678521,19 400.728421,19.4297012 401.587823,20.2891036 C402.447225,21.148506 402.876699,22.1981791 402.876245,23.4381227 C402.876245,23.9388342 402.796586,24.4110959 402.637269,24.854908 C402.477951,25.2987204 402.261735,25.6913233 401.98862,26.0327168 L405.812233,29.8563309 C405.937411,29.9815089 406,30.1408256 406,30.334281 C406,30.5277376 405.937411,30.6870546 405.812233,30.812232 C405.687055,30.9374107 405.527738,31 405.334282,31 C405.140826,31 404.981509,30.9374107 404.856331,30.812232 L401.032718,26.9886193 C400.691324,27.2617335 400.298721,27.4779495 399.854908,27.6372671 C399.411096,27.7965854 398.938834,27.8762449 398.438122,27.8762455 Z M398.438122,26.5106702 C399.291607,26.5106702 400.017183,26.2120641 400.61485,25.614852 C401.212517,25.0176401 401.511123,24.2920637 401.510668,23.4381227 C401.510668,22.5846375 401.212062,21.859289 400.61485,21.2620773 C400.017637,20.6648652 399.292062,20.3660314 398.438122,20.365576 C397.584637,20.365576 396.859289,20.6644098 396.262077,21.2620773 C395.664865,21.8597447 395.366031,22.5850932 395.365576,23.4381227 C395.365576,24.2916079 395.66441,25.0171839 396.262077,25.614851 C396.859744,26.2125177 397.585093,26.5111241 398.438122,26.5106702 Z" id="路径"></path>
            </g>
        </g>
    </g>
</svg>